<?xml version="1.0" encoding="iso-8859-1"?>
<!-- Generator: Adobe Illustrator 19.0.0, SVG Export Plug-In . SVG Version: 6.00 Build 0)  -->
<svg version="1.1" id="Capa_1" xmlns="http://www.w3.org/2000/svg" xmlns:xlink="http://www.w3.org/1999/xlink" x="0px" y="0px"
	 viewBox="0 0 511.999 511.999" style="enable-background:new 0 0 511.999 511.999;" xml:space="preserve">
<rect x="91.13" y="239.661" transform="matrix(-0.7071 0.7071 -0.7071 -0.7071 713.2271 295.432)" style="fill:#F98E19;" width="408.596" height="111.539"/>
<path style="fill:#FCA934;" d="M288.929,241.127c0,26.289-21.512,47.801-47.801,47.801h-18.058l10.396-55.463l55.463-10.396
	L288.929,241.127L288.929,241.127z"/>
<rect x="12.271" y="160.806" transform="matrix(-0.7071 0.7071 -0.7071 -0.7071 522.8479 216.5796)" style="fill:#FFC44F;" width="408.596" height="111.539"/>
<path style="fill:#FAD0BB;" d="M223.071,400.47c0,30.796-12.484,58.678-32.666,78.86c-43.558,43.558-114.178,43.558-157.736,0
	l45.065-112.666l145.337-77.736L223.071,400.47L223.071,400.47z"/>
<path style="fill:#FFEBC4;" d="M223.071,288.929L32.668,479.331c-43.558-43.558-43.558-114.178,0-157.736
	c20.183-20.183,48.064-32.666,78.86-32.666L223.071,288.929L223.071,288.929z"/>
<path style="fill:#FAD0BB;" d="M479.331,190.404c-20.183,20.183-48.064,32.666-78.86,32.666H288.929l77.736-145.337l112.666-45.065
	C522.888,76.226,522.888,146.846,479.331,190.404z"/>
<path style="fill:#FFEBC4;" d="M479.331,32.668L288.929,223.07V111.529c0-30.796,12.476-58.67,32.666-78.86
	C365.168-10.889,435.773-10.889,479.331,32.668z"/>
<path style="fill:#4C2115;" d="M342.836,169.163l14.407-100.851l100.851-14.407c31.777,31.777,31.777,83.482,0,115.258
	S374.613,200.94,342.836,169.163z"/>
<path style="fill:#72231A;" d="M342.836,53.905c31.777-31.777,83.482-31.777,115.258,0L342.836,169.163
	C311.059,137.386,311.059,85.681,342.836,53.905z"/>
<path style="fill:#4C2115;" d="M53.905,458.094l14.407-100.851l100.851-14.407c31.777,31.777,31.777,83.482,0,115.258
	S85.682,489.871,53.905,458.094z"/>
<path style="fill:#72231A;" d="M53.905,342.836c31.777-31.777,83.482-31.777,115.258,0L53.905,458.094
	C22.128,426.318,22.128,374.613,53.905,342.836z"/>
<g>
</g>
<g>
</g>
<g>
</g>
<g>
</g>
<g>
</g>
<g>
</g>
<g>
</g>
<g>
</g>
<g>
</g>
<g>
</g>
<g>
</g>
<g>
</g>
<g>
</g>
<g>
</g>
<g>
</g>
</svg>
